<?xml version="1.0" encoding="utf-8"?>
<!-- Generator: Adobe Illustrator 24.0.1, SVG Export Plug-In . SVG Version: 6.00 Build 0)  -->
<svg version="1.1" id="Layer_1" xmlns="http://www.w3.org/2000/svg" xmlns:xlink="http://www.w3.org/1999/xlink" x="0px" y="0px"
	 viewBox="0 0 176.6 200" style="enable-background:new 0 0 176.6 200;" xml:space="preserve">
<style type="text/css">
	.st0{fill:#86D3E7;}
	.st1{fill:#3A3D40;}
</style>
<path class="st0" d="M174.2,0C116.9,0,59.6,0,2.4,0C0.2,0-0.2,0.6,0.1,2.8C0.3,5,0.5,7.3,0.7,9.5c0.5,5,0.8,10,1.3,15
	c0.6,6.6,1.2,13.2,1.8,19.8c0.6,6.6,1.2,13.2,1.7,19.8C6.2,72.1,6.9,80,7.7,88c0.7,8.1,1.4,16.2,2.1,24.3
	c1.1,12.4,2.2,24.7,3.3,37.1c0.9,9.5,1.7,19,2.5,28.6c0.2,1.9,0.9,3.2,3,3.8c7.3,2,14.5,4.1,21.8,6.1c15.7,4.1,31.1,9.6,47.1,12.4
	c0.5,0,1,0,1.6,0c2.4-0.7,5-0.6,7.5-1.3c9.4-2.7,18.9-5.3,28.4-8c11-3.1,22.1-6.1,33.1-9.2c1.8-0.5,2.8-1.6,2.9-3.4
	c0.3-4.9,0.9-9.7,1.3-14.6c0.5-6.6,1.2-13.2,1.7-19.8c0.6-6.7,1.2-13.5,1.8-20.2c0.6-6.4,1.1-12.8,1.7-19.2c0.8-8,1.5-15.9,2.2-23.9
	c0.6-6.7,1.1-13.3,1.7-20c0.9-9.4,1.7-18.8,2.5-28.2c0.9-10,1.7-19.9,2.7-29.9C176.7,0.6,176.3,0,174.2,0z M143.5,39.1
	c-1.4,15.4-2.7,30.7-4.1,46.1c-1.5,16.7-3,33.4-4.6,50.2c-0.4,4.2-0.8,8.4-1.1,12.6c-0.1,1.2-0.6,1.6-1.7,1.9
	c-14.2,3.9-28.3,7.8-42.5,11.7c-0.9,0.3-1.7,0.2-2.7,0c-14-3.9-28.1-7.8-42.1-11.6c-1.5-0.4-1.9-1.1-2.1-2.5
	c-0.7-8-1.4-15.9-2.1-23.9c-0.2-2.6-0.4-5.2-0.7-7.8c-0.2-1.5,0.3-1.9,1.8-1.9c6.1,0.1,12.2,0.1,18.4,0c1.6,0,2,0.6,2.2,2.1
	c0.3,4.9,0.9,9.7,1.3,14.6c0.1,1.3,0.5,1.9,1.8,2.3c7.2,1.9,14.4,3.9,21.7,5.8c0.9,0.2,1.8,0.2,2.7,0c7.2-2,14.4-3.9,21.7-5.8
	c1.2-0.3,1.7-0.8,1.9-2.1c1-9.3,2-18.5,3-27.7c0.2-1.9-1-1.3-1.8-1.3c-13.3,0-26.6,0-39.8,0c-11.1,0-22.3,0-33.4,0.1
	c-1.7,0-2.5-0.3-2.7-2.2c-0.5-5.5-1.1-11-1.7-16.5c-0.2-1.9,0.4-2.2,2.2-2.3c24.5-0.2,49.1-0.5,73.6-0.8c1.8,0,4,0.6,5.3-0.5
	c1.3-1,0.6-3.3,0.7-5c0.5-5.2,0.8-10.5,1.2-15.8c0.1-0.9-0.2-1.4-1.1-1.3c-0.5,0-0.9,0-1.4,0c-26.8,0.1-53.6,0.2-80.5,0.3
	c-1.9,0-2.6-0.4-2.7-2.4c-0.3-5.8-0.7-11.6-1.2-17.3c-0.1-1,0.3-1.3,1.2-1.2c2,0,4,0,6.1,0c16,0,32,0,48,0c17.8,0,35.5,0,53.3,0
	C143.3,36.9,143.7,37.3,143.5,39.1z"/>
</svg>
