<?xml version="1.0" encoding="utf-8"?>
<!-- Generator: Adobe Illustrator 24.0.1, SVG Export Plug-In . SVG Version: 6.00 Build 0)  -->
<svg version="1.1" id="Layer_1" xmlns="http://www.w3.org/2000/svg" xmlns:xlink="http://www.w3.org/1999/xlink" x="0px" y="0px"
	 viewBox="0 0 176.6 200" style="enable-background:new 0 0 176.6 200;" xml:space="preserve">
<style type="text/css">
	.st0{fill:#3A3D40;}
	.st1{fill:#86D3E7;}
</style>
<image style="overflow:visible;" width="1920" height="1080" xlink:href="F8EFCDE7.jpg"  transform="matrix(1 0 0 1 -676.2435 -1582.826)">
</image>
<path class="st0" d="M170.7,0C115.8,0,60.8,0,5.9,0c-3.1,0.2-5,1.8-5.7,4.9C0,5.8,0,6.8,0.1,7.8c0.5,4.3,0.7,8.7,1,13
	c0.3,3.9,0.6,7.9,0.9,11.8C2.5,38.7,3,44.9,3.5,51c0.3,3.9,0.6,7.8,0.9,11.6c0.5,6.2,1,12.4,1.5,18.6c0.3,3.8,0.5,7.6,0.9,11.5
	c0.5,6.2,1,12.4,1.5,18.6c0.3,3.7,0.5,7.4,0.9,11.1c0.6,6.3,1,12.5,1.5,18.8c0.3,3.8,0.6,7.5,0.9,11.3c0.5,5.9,1,11.9,1.4,17.8
	c0.4,5.2,1.8,7.4,6.7,9c15.2,5,30.5,9.8,45.7,14.5c7.2,2.3,14.3,5.2,21.9,6.1c0.8,0,1.6,0,2.3,0c4-0.5,7.9-1.5,11.7-2.8
	c2.9-1,5.8-1.9,8.7-2.8c15.9-5,31.9-10,47.8-15.2c4.2-1.4,5.9-3.8,6.1-8.2c0.2-4.1,0.6-8.2,0.9-12.2c0.5-6.1,1-12.2,1.4-18.2
	c0.3-3.9,0.6-7.9,0.9-11.8c0.5-6.1,1-12.3,1.5-18.4c0.3-3.9,0.6-7.8,0.9-11.6c0.5-6.1,1-12.3,1.5-18.4c0.3-3.8,0.6-7.5,0.9-11.3
	c0.5-6,0.9-12,1.4-18c0.3-4,0.6-8,0.9-12c0.5-6.1,1-12.3,1.5-18.4c0.3-4,0.5-8,1-12C177.1,3.4,175.5,0.9,170.7,0z M144,38.6
	c-0.6,5.7-1,11.4-1.3,17.1c-0.1,1.9-0.5,2.5-2.5,2.5c-26.7-0.1-53.4,0-80.1-0.1c-2,0-2.3,0.4-2,2.4c0.9,6.4,1.5,12.8,2.1,19.2
	c0.1,1.6,0.6,2,2.2,2c25.4,0,50.8,0,76.2-0.1c1.9,0,2.1,0.5,2,2.3c-1.1,12.4-2,24.9-2.9,37.4c-0.7,8.7-1.4,17.4-2,26.1
	c-0.1,1.1-0.4,1.6-1.5,1.9c-14.9,4.7-29.7,9.4-44.6,14.1c-0.8,0.2-1.5,0.3-2.3,0c-14.8-4.7-29.7-9.4-44.6-14.1
	c-1-0.3-1.5-0.8-1.5-1.9c-0.8-10.6-1.6-21.2-2.4-31.7c-0.1-1.4,0.1-2,1.8-2c7,0.1,14.1,0.1,21.1,0c1.3,0,1.8,0.3,1.8,1.7
	c-0.1,4.7,0,9.4-0.1,14.1c0,1.1,0.2,1.6,1.4,1.9c7.8,2,15.6,4.1,23.3,6.3c0.7,0.2,1.4,0.2,2.1,0c7.7-2.1,15.4-4.2,23.1-6.2
	c1.1-0.3,1.4-0.8,1.5-1.8c0.6-8.2,1.1-16.4,1.8-24.5c0.2-1.8-0.9-1.4-1.9-1.4c-21.7,0-43.5,0-65.2,0c-3.4,0-6.8-0.1-10.2,0
	c-1.2,0-1.5-0.4-1.6-1.5c-1.3-17.3-2.6-34.6-4-52c-0.3-3.7-0.6-7.4-0.9-11.1c-0.2-2.3-0.2-2.3,2.2-2.3c17.8,0,35.7,0,53.5,0
	c17.9,0,35.8,0,53.7,0C143.8,36.6,144.2,36.9,144,38.6z"/>
<path class="st1" d="M1518.1-439.8c-296.6,0-593.2,0-889.8,0c-16.8,1.1-27.1,9.7-30.8,26.2c-1.2,5.2-1.1,10.5-0.6,15.7
	c2.6,23.3,3.9,46.8,5.6,70.1c1.6,21.3,3.3,42.6,5,63.9c2.6,33.2,5,66.3,7.8,99.5c1.8,20.9,3.1,41.9,4.8,62.9
	c2.6,33.5,5.4,67,8,100.5c1.6,20.6,2.9,41.2,4.7,61.8c3,33.5,5.4,67,7.9,100.5c1.5,19.9,2.9,39.8,4.7,59.7
	c3,33.8,5.3,67.7,7.9,101.6c1.6,20.3,3,40.5,4.8,60.7c2.8,32.1,5.3,64.2,7.5,96.3c2,28.1,9.6,39.9,36.2,48.6
	c82,26.9,164.4,52.7,246.8,78.5c39,12.2,77.1,28.2,118.2,32.9c4.2,0,8.4,0,12.7,0c21.6-2.8,42.4-8.3,63.1-15.3
	c15.6-5.2,31.3-10.3,47.1-15.2c86.1-26.9,172.1-54,257.8-81.9c22.7-7.4,31.9-20.7,33-44.5c1-22,3.1-44,4.8-66
	c2.5-32.8,5.2-65.6,7.8-98.4c1.7-21.3,3.2-42.6,4.8-63.9c2.6-33.2,5.5-66.3,7.9-99.5c1.5-21,3-41.9,4.8-62.9
	c2.9-33.1,5.3-66.3,7.9-99.5c1.5-20.3,3.1-40.5,4.8-60.8c2.7-32.4,4.9-64.9,7.7-97.4c1.9-21.6,3.3-43.3,4.9-65
	c2.6-33.2,5.2-66.3,7.9-99.5c1.7-21.6,2.6-43.4,5.2-64.9C1552.2-421.4,1543.6-435,1518.1-439.8z M1373.7-231.3
	c-3.2,30.7-5.5,61.6-7.2,92.4c-0.5,10-2.6,13.4-13.7,13.4c-144.1-0.5-288.1-0.2-432.2-0.5c-10.6,0-12.3,2.3-10.9,12.7
	c4.6,34.4,8.2,69,11.2,103.7c0.8,8.6,3.2,11,11.7,10.9c137-0.3,274.1-0.1,411.1-0.4c10.2,0,11.5,2.7,10.7,12.2
	c-5.7,67.2-10.6,134.4-15.8,201.7c-3.6,46.9-7.4,93.8-10.8,140.8c-0.4,5.7-2.4,8.5-8,10.3c-80.2,25.2-160.4,50.6-240.5,76.2
	c-4.2,1.3-7.8,1.5-12.2,0.1c-80.1-25.5-160.3-51-240.5-76.2c-5.6-1.8-7.8-4.3-8.3-10.1c-4.2-57.1-8.6-114.2-13.2-171.2
	c-0.6-7.8,0.5-10.9,9.6-10.8c37.9,0.6,75.9,0.4,113.8,0.1c7.2-0.1,9.6,1.7,9.5,9.3c-0.5,25.3,0,50.6-0.3,75.9
	c-0.1,5.8,1.2,8.5,7.5,10.1c42.1,10.9,84,22.3,126,33.7c3.9,1.1,7.3,1,11.2-0.1c41.6-11.4,83.2-22.8,124.9-33.6
	c6-1.6,7.8-4.3,8.2-9.9c3-44.1,6.1-88.3,9.7-132.4c0.8-9.9-5.1-7.7-10.3-7.7c-117.4,0-234.7,0-352.1,0c-18.3,0-36.5-0.3-54.8,0.2
	c-6.6,0.2-8.2-2.1-8.7-8.3c-7-93.5-14.3-187-21.5-280.5c-1.5-20-3-39.9-4.7-59.9c-1.1-12.6-1.2-12.6,11.9-12.6
	c96.3,0,192.5,0,288.8,0c96.6,0,193.3,0.1,289.9-0.2C1372.6-242.3,1374.7-240.6,1373.7-231.3z"/>
</svg>
