<?xml version="1.0" encoding="utf-8"?>
<!-- Generator: Adobe Illustrator 24.0.1, SVG Export Plug-In . SVG Version: 6.00 Build 0)  -->
<svg version="1.1" id="Layer_1" xmlns="http://www.w3.org/2000/svg" xmlns:xlink="http://www.w3.org/1999/xlink" x="0px" y="0px"
	 viewBox="0 0 176.6 200" style="enable-background:new 0 0 176.6 200;" xml:space="preserve">
<style type="text/css">
	.st0{fill:#86D3E7;}
	.st1{fill:#3A3D40;}
</style>
<path class="st0" d="M170.7,0C115.8,0,60.8,0,5.9,0c-3.1,0.2-5,1.8-5.7,4.9C0,5.8,0,6.8,0.1,7.8c0.5,4.3,0.7,8.7,1,13
	c0.3,3.9,0.6,7.9,0.9,11.8C2.5,38.7,3,44.9,3.5,51c0.3,3.9,0.6,7.8,0.9,11.6c0.5,6.2,1,12.4,1.5,18.6c0.3,3.8,0.5,7.6,0.9,11.5
	c0.5,6.2,1,12.4,1.5,18.6c0.3,3.7,0.5,7.4,0.9,11.1c0.6,6.3,1,12.5,1.5,18.8c0.3,3.8,0.6,7.5,0.9,11.3c0.5,5.9,1,11.9,1.4,17.8
	c0.4,5.2,1.8,7.4,6.7,9c15.2,5,30.5,9.8,45.7,14.5c7.2,2.3,14.3,5.2,21.9,6.1c0.8,0,1.6,0,2.3,0c4-0.5,7.9-1.5,11.7-2.8
	c2.9-1,5.8-1.9,8.7-2.8c15.9-5,31.9-10,47.8-15.2c4.2-1.4,5.9-3.8,6.1-8.2c0.2-4.1,0.6-8.2,0.9-12.2c0.5-6.1,1-12.2,1.4-18.2
	c0.3-3.9,0.6-7.9,0.9-11.8c0.5-6.1,1-12.3,1.5-18.4c0.3-3.9,0.6-7.8,0.9-11.6c0.5-6.1,1-12.3,1.5-18.4c0.3-3.8,0.6-7.5,0.9-11.3
	c0.5-6,0.9-12,1.4-18c0.3-4,0.6-8,0.9-12c0.5-6.1,1-12.3,1.5-18.4c0.3-4,0.5-8,1-12C177.1,3.4,175.5,0.9,170.7,0z M144,38.6
	c-0.6,5.7-1,11.4-1.3,17.1c-0.1,1.9-0.5,2.5-2.5,2.5c-26.7-0.1-53.4,0-80.1-0.1c-2,0-2.3,0.4-2,2.4c0.9,6.4,1.5,12.8,2.1,19.2
	c0.1,1.6,0.6,2,2.2,2c25.4,0,50.8,0,76.2-0.1c1.9,0,2.1,0.5,2,2.3c-1.1,12.4-2,24.9-2.9,37.4c-0.7,8.7-1.4,17.4-2,26.1
	c-0.1,1.1-0.4,1.6-1.5,1.9c-14.9,4.7-29.7,9.4-44.6,14.1c-0.8,0.2-1.5,0.3-2.3,0c-14.8-4.7-29.7-9.4-44.6-14.1
	c-1-0.3-1.5-0.8-1.5-1.9c-0.8-10.6-1.6-21.2-2.4-31.7c-0.1-1.4,0.1-2,1.8-2c7,0.1,14.1,0.1,21.1,0c1.3,0,1.8,0.3,1.8,1.7
	c-0.1,4.7,0,9.4-0.1,14.1c0,1.1,0.2,1.6,1.4,1.9c7.8,2,15.6,4.1,23.3,6.3c0.7,0.2,1.4,0.2,2.1,0c7.7-2.1,15.4-4.2,23.1-6.2
	c1.1-0.3,1.4-0.8,1.5-1.8c0.6-8.2,1.1-16.4,1.8-24.5c0.2-1.8-0.9-1.4-1.9-1.4c-21.7,0-43.5,0-65.2,0c-3.4,0-6.8-0.1-10.2,0
	c-1.2,0-1.5-0.4-1.6-1.5c-1.3-17.3-2.6-34.6-4-52c-0.3-3.7-0.6-7.4-0.9-11.1c-0.2-2.3-0.2-2.3,2.2-2.3c17.8,0,35.7,0,53.5,0
	c17.9,0,35.8,0,53.7,0C143.8,36.6,144.2,36.9,144,38.6z"/>
</svg>
